<?xml version="1.0" encoding="utf-8"?>
<!-- Generator: Adobe Illustrator 24.1.1, SVG Export Plug-In . SVG Version: 6.00 Build 0)  -->
<svg version="1.1" id="Layer_1" xmlns="http://www.w3.org/2000/svg" xmlns:xlink="http://www.w3.org/1999/xlink" x="0px" y="0px"
	 viewBox="0 0 100 100" style="enable-background:new 0 0 100 100;" xml:space="preserve">
<style type="text/css">
	.st0{fill:#00077F;stroke:#00044A;stroke-width:0.25;stroke-miterlimit:10;}
	.st1{fill:#FFFFFF;stroke:#00044A;stroke-width:0.25;stroke-miterlimit:10;}
	.st2{fill:#FFFFFF;stroke:#00193F;stroke-width:0.25;stroke-miterlimit:10;}
</style>
<path class="st0" d="M90.21,42.97c0,0,3.32-0.53,5.78,4.19c0,0,0.53,3.32-2.8,3.85c0,0-2.62-0.43-5.78-4.19c0,0-4.2-1.52-5.24,3.57
	c0,0,2.72,1.95,1.2,7.04c0,0-1.92,2.74-4.63,0.79c0,0-1.56-2.15-1.2-7.04c0,0-2.38-2.82-5.13-0.48c0,0,0.97,3.22-3.38,6.29
	c0,0-3.22,0.97-4.19-2.25c0,0,0.08-2.66,3.38-6.29c-0.48-3.9-5.29-4.49-5.29-4.49s-3.57,5.32-8.22,2.73c0,0-3.98-1.61-0.72-5.27
	c0,0,4.24-4.33,7.24-2.06c3.65-1.98,0.28-5.46,0.28-5.46c-3.06,2.19-6.91-0.61-6.91-0.61c-1.93-1.4,1.13-3.59,1.13-3.59
	c2.1-2.89,6.91,0.61,6.91,0.61c2.36-1.23,1.71-3.78,1.71-3.78s-3.35-0.32-4.54-5.51c0,0,0.32-3.35,3.67-3.03
	c0,0,2.43,1.08,4.54,5.51c0,0,3.68,2.53,5.97-2.14c0,0-2.14-2.57,0.6-7.11c0,0,2.54-2.17,4.69,0.4c0,0,0.97,2.47-0.6,7.11
	c0,0,1.6,3.32,4.84,1.75c0,0-0.13-3.36,4.85-5.24c0,0,3.36-0.13,3.49,3.23c0,0-0.74,2.55-4.85,5.24c0,0-1.55,2.5,2.04,3.64
	c0,0,5.68-1.75,9.27-0.62c0,0,3.15,3.76,0.79,4.98c0,0-5.42,3.42-8.31,1.32C90.82,36.06,87.06,39.21,90.21,42.97z"/>
<path class="st1" d="M82.6,43.33c0,0,8.48-5.61-0.45-13.56c0,0-8.93-7.95-14.12,2.24c0,0-5.02,5.91,1.98,12.46
	C70.01,44.48,75.09,49.63,82.6,43.33z"/>
<path class="st0" d="M39.29,38.82c0,0,0.09-4.19,6.42-6.16c0,0,4.19,0.09,4.11,4.28c0,0-1.11,3.12-6.42,6.16
	c0,0-2.79,4.81,3.22,7.22c0,0,2.99-2.9,8.89,0.08c0,0,2.94,2.96-0.05,5.86c0,0-2.98,1.44-8.89-0.08c0,0-3.98,2.3-1.71,6.18
	c0,0,4.17-0.48,6.96,5.53c0,0,0.48,4.17-3.69,4.64c0,0-3.24-0.68-6.96-5.53c-4.88-0.27-6.67,5.5-6.67,5.5s5.73,5.56,1.53,10.68
	c0,0-2.85,4.52-6.62-0.29c0,0-4.38-6.16-0.93-9.33c-1.62-4.91-6.63-1.55-6.63-1.55c2.01,4.23-2.27,8.34-2.27,8.34
	c-2.14,2.05-4.15-2.18-4.15-2.18c-3.08-3.21,2.27-8.34,2.27-8.34c-0.98-3.17-4.26-2.93-4.26-2.93s-1.13,4.04-7.76,4.35
	c0,0-4.04-1.13-2.9-5.17c0,0,1.86-2.74,7.76-4.35c0,0,3.91-3.96-1.31-7.79c0,0-3.62,2.06-8.59-2.3c0,0-2.1-3.6,1.52-5.66
	c0,0,3.24-0.65,8.59,2.3c0,0,4.43-1.23,3.21-5.55c0,0-4.15-0.58-5.35-7.1c0,0,0.58-4.15,4.74-3.57c0,0,2.97,1.48,5.35,7.1
	c0,0,2.73,2.45,4.91-1.7c0,0-0.9-7.36,1.28-11.51c0,0,5.3-3.04,6.29,0.13c0,0,2.99,7.4-0.21,10.48
	C30.95,36.56,33.99,41.86,39.29,38.82z"/>
<path class="st2" d="M38.05,48.23c0,0-5.01-11.63-16.72-2.44c0,0-11.72,9.2-0.36,17.82c0,0,6.14,7.46,15.72,0.32
	C36.69,63.93,44.13,58.84,38.05,48.23z"/>
</svg>
